<svg width="12" height="12" viewBox="0 0 12 12" fill="none" xmlns="http://www.w3.org/2000/svg">
<path d="M6 1C5.33696 1.66304 4.96447 2.56232 4.96447 3.5C4.96447 4.43768 5.33696 5.33696 6 6C6.66304 6.66304 7.56232 7.03553 8.5 7.03553C9.43768 7.03553 10.337 6.66304 11 6C11 6.9889 10.7068 7.9556 10.1573 8.77785C9.60794 9.60009 8.82705 10.241 7.91342 10.6194C6.99979 10.9978 5.99446 11.0969 5.02455 10.9039C4.05465 10.711 3.16373 10.2348 2.46447 9.53553C1.76521 8.83627 1.289 7.94535 1.09608 6.97545C0.90315 6.00555 1.00217 5.00021 1.3806 4.08658C1.75904 3.17295 2.39991 2.39206 3.22215 1.84265C4.0444 1.29324 5.01109 1 6 1Z" stroke="black" stroke-linecap="round" stroke-linejoin="round"/>
</svg>
